#N canvas 82 53 956 1002 12;
#X obj 18 119 notein;
#X obj 38 262 grain-synth 1;
#X obj 516 261 loadbang;
#X obj 326 94 record-sample 1;
#N canvas 563 124 1334 839 fileloader 0;
#X obj 173 529 textfile;
#X obj 76 213 +;
#X msg 76 183 1;
#X msg 107 183 -1;
#X floatatom 269 270 5 0 0 0 - - -;
#X text 305 57 file number in list;
#X obj 173 556 list trim;
#X obj 173 592 s filename;
#N canvas 198 246 984 488 gangbang 0;
#X obj 224 25 inlet;
#X obj 129 258 outlet;
#X obj 265 336 outlet;
#X text 328 338 done;
#X text 13 156 bang n times;
#X obj 158 219 bng 15 250 50 0 empty empty empty 17 7 0 10 -262144
-1 -1;
#X obj 231 80 abs;
#X obj 166 112 until;
#X obj 166 140 f;
#X obj 197 142 + 1;
#X obj 241 142 sel 0;
#X obj 197 163 mod 10;
#X floatatom 154 167 5 0 0 0 - - -;
#X obj 206 89 bng 15 250 50 0 empty empty empty 17 7 0 10 -262144 -1
-1;
#X obj 297 127 - 1;
#X obj 297 149 abs;
#X obj 245 216 == 2;
#X floatatom 297 171 5 0 0 0 - - -;
#X obj 244 262 spigot 1;
#X msg 262 295 bang;
#X connect 0 0 6 0;
#X connect 0 0 13 0;
#X connect 5 0 1 0;
#X connect 6 0 11 1;
#X connect 6 0 14 0;
#X connect 7 0 8 0;
#X connect 8 0 9 0;
#X connect 8 0 12 0;
#X connect 8 0 16 0;
#X connect 9 0 11 0;
#X connect 10 0 7 1;
#X connect 11 0 8 1;
#X connect 11 0 10 0;
#X connect 12 0 5 0;
#X connect 13 0 7 0;
#X connect 14 0 15 0;
#X connect 15 0 17 0;
#X connect 16 0 18 1;
#X connect 16 0 18 0;
#X connect 17 0 16 1;
#X connect 18 0 19 0;
#X connect 19 0 2 0;
#X restore 269 321 pd gangbang;
#X msg 300 352 rewind;
#X obj 500 458 pack s s;
#X obj 497 561 soundfiler;
#X floatatom 593 593 15 0 0 0 - - -;
#X obj 484 273 t b b;
#X obj 691 262 r filename;
#X obj 563 321 symbol;
#X symbolatom 559 346 35 0 0 0 - - -;
#X obj 58 71 bng 15 250 50 0 empty empty + 4 7 0 14 -33289 -1 -4034
;
#X obj 72 71 bng 15 250 50 0 empty empty - 4 7 0 14 -33289 -1 -4034
;
#X obj 437 676 s totallength;
#X obj 566 657 s totalduration;
#X obj 546 228 r path;
#X obj 497 342 symbol;
#X symbolatom 502 408 55 0 0 0 - - -;
#X obj 175 473 pack s s;
#X obj 176 388 r path;
#X obj 176 410 symbol;
#X obj 230 410 symbol;
#X obj 230 388 r textlist;
#X msg 174 502 read \$1\$2 cr;
#X obj 91 72 nbx 5 14 -1e+37 1e+37 0 0 empty empty empty 0 -8 0 10
-262144 -1 -1 5 256;
#X obj 438 246 bng 15 250 50 0 empty empty empty 17 7 0 10 -262144
-1 -1;
#X obj 678 289 symbol;
#X obj 546 250 symbol;
#X obj 115 513 bng 15 250 50 0 empty empty empty 17 7 0 10 -262144
-1 -1;
#X obj 147 212 i 0;
#X obj 792 493 print;
#X obj 484 295 delay 1;
#X obj 373 276 delay 0.01;
#X obj 177 437 symbol;
#X obj 246 437 symbol;
#X obj 269 291 t f b b;
#X obj 497 590 t b b f f;
#N canvas 677 50 450 300 pause_plot 0;
#X msg 80 68 1;
#X obj 156 123 s pauseplot;
#X msg 116 69 0;
#X floatatom 156 102 5 0 0 0 - - -;
#X obj 80 90 t b;
#X obj 57 37 inlet;
#X obj 51 179 outlet;
#X obj 74 124 delay 500;
#X connect 0 0 3 0;
#X connect 0 0 4 0;
#X connect 2 0 3 0;
#X connect 3 0 1 0;
#X connect 4 0 7 0;
#X connect 5 0 0 0;
#X connect 5 0 6 0;
#X connect 7 0 2 0;
#X restore 387 339 pd pause_plot;
#X msg 731 467 1 \$1;
#X obj 596 172 s path;
#X obj 721 70 bng 15 250 50 0 empty empty empty 17 7 0 10 -262144 -1
-1;
#X msg 696 186 list.txt;
#X obj 699 217 s textlist;
#X obj 665 812 outlet;
#X obj 666 773 pack f f s;
#X msg 807 682 loopl;
#X msg 644 741 0;
#X obj 765 722 symbol;
#X msg 497 532 read -resize -maxsize 1e+07 \$1\$2 loopl loopr;
#X obj 566 625 / 44.1;
#X msg 606 131;
#X obj 275 106 r filename;
#X obj 275 128 symbol;
#X symbolatom 289 177 30 0 0 0 - - -;
#X obj 359 106 r path, f 7;
#X obj 359 128 symbol;
#X symbolatom 290 155 30 0 0 0 - - -;
#X obj 583 382 send screenLine5;
#X obj 499 497 list;
#X obj 430 387 r funcBut;
#X obj 73 2 r enc;
#X obj 74 27 sel 1 0;
#X obj 430 412 sel 0;
#X obj 442 443 bng 15 250 50 0 empty empty empty 17 7 0 10 -262144
-1 -1;
#X obj 434 625 delay 100;
#X msg 398 738 1;
#X obj 398 763 s replot;
#X obj 473 -46 loadbang;
#X obj 475 7 t b b b b b;
#X obj 473 -21 delay 100;
#X obj 472 54 delay 1500;
#X obj 369 500 s replotASR;
#X msg 373 464 1;
#X connect 0 0 6 0;
#X connect 1 0 35 0;
#X connect 2 0 1 0;
#X connect 3 0 1 0;
#X connect 4 0 30 0;
#X connect 4 0 41 0;
#X connect 6 0 7 0;
#X connect 8 0 0 0;
#X connect 8 0 38 0;
#X connect 9 0 0 0;
#X connect 10 0 64 1;
#X connect 11 0 12 0;
#X connect 11 0 42 0;
#X connect 13 0 37 0;
#X connect 13 1 15 0;
#X connect 14 0 32 0;
#X connect 15 0 16 0;
#X connect 15 0 44 0;
#X connect 16 0 10 1;
#X connect 16 0 63 0;
#X connect 17 0 2 0;
#X connect 18 0 3 0;
#X connect 21 0 33 0;
#X connect 22 0 23 0;
#X connect 23 0 10 0;
#X connect 24 0 29 0;
#X connect 25 0 26 0;
#X connect 26 0 39 1;
#X connect 27 0 40 1;
#X connect 28 0 27 0;
#X connect 29 0 0 0;
#X connect 31 0 13 0;
#X connect 31 0 43 0;
#X connect 32 0 15 1;
#X connect 33 0 22 1;
#X connect 34 0 0 0;
#X connect 35 0 4 0;
#X connect 35 0 1 1;
#X connect 37 0 22 0;
#X connect 38 0 31 0;
#X connect 39 0 24 0;
#X connect 40 0 24 1;
#X connect 41 0 8 0;
#X connect 41 1 9 0;
#X connect 41 2 40 0;
#X connect 41 2 39 0;
#X connect 42 0 70 0;
#X connect 42 1 51 0;
#X connect 42 1 52 0;
#X connect 42 2 19 0;
#X connect 42 2 50 1;
#X connect 42 3 55 0;
#X connect 44 0 36 0;
#X connect 46 0 56 0;
#X connect 46 0 47 0;
#X connect 47 0 48 0;
#X connect 50 0 49 0;
#X connect 51 0 53 0;
#X connect 52 0 50 0;
#X connect 53 0 50 2;
#X connect 54 0 11 0;
#X connect 55 0 20 0;
#X connect 56 0 45 0;
#X connect 57 0 58 0;
#X connect 58 0 59 0;
#X connect 60 0 61 0;
#X connect 61 0 62 0;
#X connect 64 0 54 0;
#X connect 65 0 68 0;
#X connect 66 0 67 0;
#X connect 67 0 17 0;
#X connect 67 1 18 0;
#X connect 68 0 69 0;
#X connect 69 0 64 0;
#X connect 70 0 71 0;
#X connect 71 0 72 0;
#X connect 73 0 75 0;
#X connect 74 1 76 0;
#X connect 74 2 31 0;
#X connect 74 3 17 0;
#X connect 74 4 47 0;
#X connect 74 4 56 0;
#X connect 75 0 74 0;
#X connect 76 0 69 0;
#X connect 76 0 78 0;
#X connect 78 0 77 0;
#X coords 0 -1 1 1 100 43 1 50 50;
#X restore 626 152 pd fileloader;
#X floatatom 18 143 5 0 0 0 - - -;
#X msg 635 323 \; pd dsp 1 \;;
#X obj 486 275 bng 15 250 50 0 empty empty empty 17 7 0 10 -262144
-1 -1;
#X obj 536 311 t b b b b b;
#N canvas 357 212 1433 839 touchOSC 1;
#X obj 80 34 bng 15 250 50 0 empty empty empty 17 7 0 10 -262144 -1
-1;
#X obj 81 201 unpackOSC;
#X obj 67 6 loadbang;
#X obj 754 308 ctlin;
#X floatatom 755 368 5 0 0 0 - - -;
#X floatatom 797 369 5 0 0 0 - - -;
#X obj 875 746 notein;
#X obj 875 771 stripnote;
#X floatatom 875 796 5 0 0 0 - - -;
#X floatatom 935 796 5 0 0 0 - - -;
#X obj 729 744 bendin;
#X floatatom 729 769 5 0 0 0 - - -;
#X floatatom 960 753 5 0 0 0 - - -;
#X obj 798 774 bendout;
#X obj 38 384 routeOSC /KK/rotary1 /KK/rotary2 /KK/rotary3 /KK/rotary4
/KK/rotary5 /KK/rotary6 /KK/rotary7 /KK/rotary8;
#X obj 38 432 s rot1;
#X obj 84 432 s rot2;
#X obj 131 432 s rot3;
#X obj 179 432 s rot4;
#X obj 42 557 routeOSC /KK/rotary9 /KK/rotary10 /KK/rotary11 /KK/rotary12
/KK/rotary13 /KK/rotary14 /KK/rotary15 /KK/rotary16;
#X obj 42 601 s rot9;
#X obj 90 628 s rot10;
#X obj 144 601 s rot11;
#X obj 194 631 s rot12;
#N canvas 421 270 1388 713 touchkeys 0;
#X obj 41 7 inlet;
#X obj 113 68 routeOSC /KK/push1 /KK/push2 /KK/push3 /KK/push4 /KK/push5
/KK/push6 /KK/push7 /KK/push8 /KK/push9 /KK/push10 /KK/push11 /KK/push12
;
#X obj 107 349 routeOSC /KK/push13 /KK/push14 /KK/push15 /KK/push16
/KK/push17 /KK/push18 /KK/push19 /KK/push20 /KK/push21 /KK/push22 /KK/push23
/KK/push24;
#X obj 599 71 routeOSC /KK/push25 /KK/push28;
#X msg 144 134 49;
#X msg 111 134 48;
#X obj 670 247 s octave;
#X obj 599 94 select 0;
#X obj 703 96 select 0;
#N canvas 4 53 909 421 getridofZ 0;
#X obj 45 35 inlet;
#X obj 66 216 outlet;
#X obj 76 74 routeOSC /KK/push1/z /KK/push2/z /KK/push3/z /KK/push4/z
/KK/push5/z /KK/push6/z /KK/push7/z /KK/push8/z /KK/push9/z /KK/push10/z
/KK/push11/z /KK/push12/z /KK/push13/z /KK/push14/z /KK/push15/z /KK/push16/z
/KK/push17/z /KK/push18/z /KK/push19/z /KK/push20/z /KK/push21/z /KK/push22/z
/KK/push23/z /KK/push24/z /KK/push25/z /KK/push28/z;
#X connect 0 0 2 0;
#X connect 2 26 1 0;
#X restore 74 31 pd getridofZ;
#N canvas 4 53 857 365 noteon-noteoff 0;
#X obj 71 37 inlet;
#X obj 202 41 inlet;
#X obj 137 179 select 0;
#X obj 107 300 s touchkey;
#X obj 189 301 s touchkey;
#X obj 122 206 bng 15 250 50 0 empty empty empty 17 7 0 10 -262144
-1 -1;
#X obj 199 202 bng 15 250 50 0 empty empty empty 17 7 0 10 -262144
-1 -1;
#X msg 182 263 \$1 127;
#X msg 106 271 \$1 0;
#X obj 192 235 f;
#X obj 118 237 f;
#X obj 310 40 r octave;
#X floatatom 246 183 5 0 0 0 - - -;
#X obj 125 112 t f b;
#X obj 173 79 change;
#X text 78 15 on off;
#X text 206 21 note;
#X obj 207 113 bng 15 250 50 0 empty empty empty 17 7 0 10 -262144
-1 -1;
#X floatatom 245 69 5 0 0 0 - - -;
#X floatatom 310 65 5 0 0 0 - - -;
#X obj 248 142 expr ($i1*12) + $i2;
#X connect 0 0 13 0;
#X connect 1 0 14 0;
#X connect 1 0 18 0;
#X connect 1 0 20 1;
#X connect 2 0 5 0;
#X connect 2 1 6 0;
#X connect 5 0 10 0;
#X connect 6 0 9 0;
#X connect 7 0 4 0;
#X connect 8 0 3 0;
#X connect 9 0 7 0;
#X connect 10 0 8 0;
#X connect 11 0 19 0;
#X connect 11 0 20 0;
#X connect 12 0 9 1;
#X connect 12 0 10 1;
#X connect 13 0 2 0;
#X connect 13 1 20 0;
#X connect 14 0 17 0;
#X connect 17 0 20 0;
#X connect 20 0 12 0;
#X restore 249 299 pd noteon-noteoff;
#X msg 178 134 50;
#X msg 213 134 51;
#X msg 247 134 52;
#X msg 281 134 53;
#X msg 315 134 54;
#X msg 350 134 55;
#X msg 382 134 56;
#X msg 416 134 57;
#X msg 449 134 58;
#X msg 483 134 59;
#X obj 668 200 +;
#X msg 668 170 1;
#X msg 699 170 -1;
#X obj 667 139 bng 15 250 50 0 empty empty + 4 7 0 14 -33289 -1 -4034
;
#X obj 681 139 bng 15 250 50 0 empty empty - 4 7 0 14 -33289 -1 -4034
;
#X obj 706 201 i 0;
#X floatatom 668 225 5 0 0 0 - - -;
#N canvas 4 53 857 365 noteon-noteoff 0;
#X obj 71 37 inlet;
#X obj 202 41 inlet;
#X obj 135 141 select 0;
#X obj 105 262 s touchkey;
#X obj 187 263 s touchkey;
#X obj 120 168 bng 15 250 50 0 empty empty empty 17 7 0 10 -262144
-1 -1;
#X obj 197 164 bng 15 250 50 0 empty empty empty 17 7 0 10 -262144
-1 -1;
#X msg 180 225 \$1 127;
#X msg 104 233 \$1 0;
#X obj 190 197 f;
#X obj 116 199 f;
#X obj 310 40 r octave;
#X floatatom 246 129 5 0 0 0 - - -;
#X obj 246 104 expr ($i1*12) + $i2;
#X obj 123 74 t f b;
#X connect 0 0 14 0;
#X connect 1 0 13 1;
#X connect 2 0 5 0;
#X connect 2 1 6 0;
#X connect 5 0 10 0;
#X connect 6 0 9 0;
#X connect 7 0 4 0;
#X connect 8 0 3 0;
#X connect 9 0 7 0;
#X connect 10 0 8 0;
#X connect 11 0 13 0;
#X connect 12 0 9 1;
#X connect 12 0 10 1;
#X connect 13 0 12 0;
#X connect 14 0 2 0;
#X connect 14 1 13 0;
#X restore 249 583 pd noteon-noteoff;
#X msg 95 429 60;
#X msg 128 429 61;
#X msg 162 429 62;
#X msg 197 429 63;
#X msg 233 430 64;
#X msg 265 429 65;
#X msg 299 429 66;
#X msg 335 429 67;
#X msg 366 429 68;
#X msg 400 429 69;
#X msg 433 429 70;
#X msg 467 429 71;
#X connect 0 0 9 0;
#X connect 1 0 5 0;
#X connect 1 0 10 0;
#X connect 1 1 4 0;
#X connect 1 1 10 0;
#X connect 1 2 11 0;
#X connect 1 2 10 0;
#X connect 1 3 12 0;
#X connect 1 3 10 0;
#X connect 1 4 13 0;
#X connect 1 4 10 0;
#X connect 1 5 14 0;
#X connect 1 5 10 0;
#X connect 1 6 15 0;
#X connect 1 6 10 0;
#X connect 1 7 16 0;
#X connect 1 7 10 0;
#X connect 1 8 17 0;
#X connect 1 8 10 0;
#X connect 1 9 18 0;
#X connect 1 9 10 0;
#X connect 1 10 19 0;
#X connect 1 10 10 0;
#X connect 1 11 20 0;
#X connect 1 11 10 0;
#X connect 1 12 2 0;
#X connect 2 0 29 0;
#X connect 2 0 28 0;
#X connect 2 1 30 0;
#X connect 2 1 28 0;
#X connect 2 2 31 0;
#X connect 2 2 28 0;
#X connect 2 3 32 0;
#X connect 2 3 28 0;
#X connect 2 4 33 0;
#X connect 2 4 28 0;
#X connect 2 5 34 0;
#X connect 2 5 28 0;
#X connect 2 6 35 0;
#X connect 2 6 28 0;
#X connect 2 7 36 0;
#X connect 2 7 28 0;
#X connect 2 8 37 0;
#X connect 2 8 28 0;
#X connect 2 9 38 0;
#X connect 2 9 28 0;
#X connect 2 10 39 0;
#X connect 2 10 28 0;
#X connect 2 11 40 0;
#X connect 2 11 28 0;
#X connect 2 12 3 0;
#X connect 3 0 7 0;
#X connect 3 1 8 0;
#X connect 4 0 10 1;
#X connect 5 0 10 1;
#X connect 7 0 25 0;
#X connect 8 0 24 0;
#X connect 9 0 1 0;
#X connect 11 0 10 1;
#X connect 12 0 10 1;
#X connect 13 0 10 1;
#X connect 14 0 10 1;
#X connect 15 0 10 1;
#X connect 16 0 10 1;
#X connect 17 0 10 1;
#X connect 18 0 10 1;
#X connect 19 0 10 1;
#X connect 20 0 10 1;
#X connect 21 0 26 0;
#X connect 21 0 27 0;
#X connect 22 0 21 0;
#X connect 23 0 21 0;
#X connect 24 0 22 0;
#X connect 25 0 23 0;
#X connect 26 0 21 1;
#X connect 27 0 6 0;
#X connect 29 0 28 1;
#X connect 30 0 28 1;
#X connect 31 0 28 1;
#X connect 32 0 28 1;
#X connect 33 0 28 1;
#X connect 34 0 28 1;
#X connect 35 0 28 1;
#X connect 36 0 28 1;
#X connect 37 0 28 1;
#X connect 38 0 28 1;
#X connect 39 0 28 1;
#X connect 40 0 28 1;
#X restore 100 244 pd touchkeys;
#X obj 494 458 select 14;
#X obj 494 483 f;
#X obj 494 508 s rot1;
#X obj 569 483 f;
#X obj 646 483 f;
#X obj 569 458 select 15;
#X obj 646 458 select 16;
#X obj 569 508 s rot2;
#X obj 646 508 s rot3;
#X obj 718 483 f;
#X obj 796 483 f;
#X obj 943 483 f;
#X obj 1015 483 f;
#X obj 718 508 s rot4;
#X obj 718 458 select 17;
#X obj 796 458 select 18;
#X obj 869 458 select 19;
#X obj 943 458 select 20;
#X obj 1015 458 select 21;
#X obj 869 483 f;
#X obj 754 334 / 127;
#X obj 502 679 f;
#X obj 577 679 f;
#X obj 654 679 f;
#X obj 726 679 f;
#X obj 804 679 f;
#X obj 951 679 f;
#X obj 1023 679 f;
#X obj 877 679 f;
#X obj 502 654 select 22;
#X obj 577 654 select 23;
#X obj 654 654 select 24;
#X obj 726 654 select 25;
#X obj 804 654 select 26;
#X obj 877 654 select 27;
#X obj 951 654 select 28;
#X obj 1023 654 select 29;
#X floatatom 747 547 5 0 0 0 - - -;
#X floatatom 823 540 5 0 0 0 - - -;
#X obj 502 704 s rot9;
#X obj 577 704 s rot10;
#X obj 654 704 s rot11;
#X obj 726 704 s rot12;
#X obj 804 704 s rot13;
#X obj 244 600 s rot13;
#X obj 877 704 s rot14;
#X obj 951 704 s rot15;
#X obj 1023 704 s rot16;
#X obj 301 631 s rot14;
#X obj 344 601 s rot15;
#X obj 397 634 s rot16;
#N canvas 100 209 1546 754 updateTouchOsc 0;
#X obj 87 59 r rot1;
#X obj 87 84 change;
#X obj 85 134 packOSC;
#X msg 87 109 /KK/rotary1 \$1;
#X obj 486 428 udpsend;
#X obj 209 84 change;
#X obj 207 134 packOSC;
#X obj 328 84 change;
#X obj 326 134 packOSC;
#X obj 454 84 change;
#X obj 452 134 packOSC;
#X obj 575 84 change;
#X obj 573 134 packOSC;
#X obj 691 84 change;
#X obj 689 134 packOSC;
#X obj 810 84 change;
#X obj 808 134 packOSC;
#X obj 931 84 change;
#X obj 929 134 packOSC;
#X obj 209 59 r rot2;
#X obj 328 59 r rot3;
#X obj 454 59 r rot4;
#X msg 931 109 /KK/rotary8 \$1;
#X msg 810 109 /KK/rotary7 \$1;
#X msg 691 109 /KK/rotary6 \$1;
#X msg 575 109 /KK/rotary5 \$1;
#X msg 454 109 /KK/rotary4 \$1;
#X msg 328 109 /KK/rotary3 \$1;
#X msg 209 109 /KK/rotary2 \$1;
#X obj 320 206 change;
#X obj 318 256 packOSC;
#X obj 442 206 change;
#X obj 440 256 packOSC;
#X obj 561 206 change;
#X obj 559 256 packOSC;
#X obj 687 206 change;
#X obj 685 256 packOSC;
#X obj 808 206 change;
#X obj 806 256 packOSC;
#X obj 924 206 change;
#X obj 922 256 packOSC;
#X obj 924 181 r rot16;
#X obj 808 181 r rot15;
#X obj 687 181 r rot14;
#X obj 561 181 r rot13;
#X obj 442 181 r rot12;
#X obj 320 181 r rot11;
#X msg 320 231 /KK/rotary11 \$1;
#X msg 442 231 /KK/rotary12 \$1;
#X msg 561 231 /KK/rotary13 \$1;
#X msg 687 231 /KK/rotary14 \$1;
#X msg 808 231 /KK/rotary15 \$1;
#X msg 924 231 /KK/rotary16 \$1;
#X obj 90 206 change;
#X obj 88 256 packOSC;
#X obj 212 206 change;
#X obj 210 256 packOSC;
#X obj 90 181 r rot9;
#X obj 212 181 r rot10;
#X msg 212 231 /KK/rotary10 \$1;
#X msg 90 231 /KK/rotary9 \$1;
#X obj 305 4 inlet;
#X obj 575 59 r rot5;
#X obj 691 59 r rot6;
#X obj 810 59 r rot7;
#X obj 931 59 r rot8;
#X obj 1063 207 change;
#X obj 1061 257 packOSC;
#X obj 1063 182 r modwheel;
#X msg 1063 232 /KK/fader2 \$1;
#X connect 0 0 1 0;
#X connect 1 0 3 0;
#X connect 2 0 4 0;
#X connect 3 0 2 0;
#X connect 5 0 28 0;
#X connect 6 0 4 0;
#X connect 7 0 27 0;
#X connect 8 0 4 0;
#X connect 9 0 26 0;
#X connect 10 0 4 0;
#X connect 11 0 25 0;
#X connect 12 0 4 0;
#X connect 13 0 24 0;
#X connect 14 0 4 0;
#X connect 15 0 23 0;
#X connect 16 0 4 0;
#X connect 17 0 22 0;
#X connect 18 0 4 0;
#X connect 19 0 5 0;
#X connect 20 0 7 0;
#X connect 21 0 9 0;
#X connect 22 0 18 0;
#X connect 23 0 16 0;
#X connect 24 0 14 0;
#X connect 25 0 12 0;
#X connect 26 0 10 0;
#X connect 27 0 8 0;
#X connect 28 0 6 0;
#X connect 29 0 47 0;
#X connect 30 0 4 0;
#X connect 31 0 48 0;
#X connect 32 0 4 0;
#X connect 33 0 49 0;
#X connect 34 0 4 0;
#X connect 35 0 50 0;
#X connect 36 0 4 0;
#X connect 37 0 51 0;
#X connect 38 0 4 0;
#X connect 39 0 52 0;
#X connect 40 0 4 0;
#X connect 41 0 39 0;
#X connect 42 0 37 0;
#X connect 43 0 35 0;
#X connect 44 0 33 0;
#X connect 45 0 31 0;
#X connect 46 0 29 0;
#X connect 47 0 30 0;
#X connect 48 0 32 0;
#X connect 49 0 34 0;
#X connect 50 0 36 0;
#X connect 51 0 38 0;
#X connect 52 0 40 0;
#X connect 53 0 60 0;
#X connect 54 0 4 0;
#X connect 55 0 59 0;
#X connect 56 0 4 0;
#X connect 57 0 53 0;
#X connect 58 0 55 0;
#X connect 59 0 56 0;
#X connect 60 0 54 0;
#X connect 61 0 4 0;
#X connect 62 0 11 0;
#X connect 63 0 13 0;
#X connect 64 0 15 0;
#X connect 65 0 17 0;
#X connect 66 0 69 0;
#X connect 67 0 4 0;
#X connect 68 0 66 0;
#X connect 69 0 67 0;
#X restore 122 131 pd updateTouchOsc;
#X obj 228 432 s rot5;
#X obj 276 432 s rot6;
#X obj 321 432 s rot7;
#X obj 372 432 s rot8;
#X obj 796 508 s rot5;
#X obj 869 508 s rot6;
#X obj 943 508 s rot7;
#X obj 1015 508 s rot8;
#X floatatom 1047 538 5 0 0 0 - - -;
#X floatatom 953 530 5 0 0 0 - - -;
#X floatatom 888 541 5 0 0 0 - - -;
#N canvas 4 53 652 318 ridofZ 0;
#X obj 67 36 inlet;
#X obj 499 207 outlet;
#X obj 69 105 routeOSC /KK/rotary1/z /KK/rotary2/z /KK/rotary3/z /KK/rotary4/z
/KK/rotary5/z /KK/rotary6/z /KK/rotary7/z /KK/rotary8/z /KK/rotary9/z
/KK/rotary10/z /KK/rotary11/z /KK/rotary12/z /KK/rotary13/z /KK/rotary14/z
/KK/rotary15/z /KK/rotary16/z /KK/fader1/z /KK/fader2/z;
#X connect 0 0 2 0;
#X connect 2 18 1 0;
#X restore 83 311 pd ridofZ;
#X obj 162 723 s modwheel;
#X obj 505 744 select 1;
#X obj 505 768 f;
#X floatatom 505 792 5 0 0 0 - - -;
#X obj 505 815 s modwheel;
#X obj 117 60 cnv 15 100 60 empty empty empty 20 12 0 14 -233017 -66577
0;
#X msg 137 81 connect 192.168.1.148 9000;
#X obj 77 170 udpreceive 10111;
#X msg 226 104 disconnect;
#X text 339 82 ipad;
#X text 202 164 ipad;
#X obj 61 683 routeOSC /KK/fader1 /KK/fader2;
#X obj 61 726 s pitchwheel;
#X obj 300 191 send screenLine5;
#X msg 30 135 port 10111;
#X connect 0 0 95 0;
#X connect 0 0 103 0;
#X connect 1 0 24 0;
#X connect 1 0 88 0;
#X connect 2 0 0 0;
#X connect 3 0 45 0;
#X connect 3 1 5 0;
#X connect 4 0 62 0;
#X connect 4 0 26 1;
#X connect 4 0 44 1;
#X connect 4 0 37 1;
#X connect 4 0 36 1;
#X connect 4 0 35 1;
#X connect 4 0 34 1;
#X connect 4 0 29 1;
#X connect 4 0 28 1;
#X connect 5 0 63 0;
#X connect 5 0 25 0;
#X connect 5 0 43 0;
#X connect 5 0 42 0;
#X connect 5 0 41 0;
#X connect 5 0 40 0;
#X connect 5 0 39 0;
#X connect 5 0 31 0;
#X connect 5 0 30 0;
#X connect 6 0 7 0;
#X connect 6 1 7 1;
#X connect 6 2 12 0;
#X connect 7 0 8 0;
#X connect 7 1 9 0;
#X connect 10 0 11 0;
#X connect 14 0 15 0;
#X connect 14 1 16 0;
#X connect 14 2 17 0;
#X connect 14 3 18 0;
#X connect 14 4 77 0;
#X connect 14 5 78 0;
#X connect 14 6 79 0;
#X connect 14 7 80 0;
#X connect 14 8 19 0;
#X connect 19 0 20 0;
#X connect 19 1 21 0;
#X connect 19 2 22 0;
#X connect 19 3 23 0;
#X connect 19 4 69 0;
#X connect 19 5 73 0;
#X connect 19 6 74 0;
#X connect 19 7 75 0;
#X connect 19 8 100 0;
#X connect 25 0 26 0;
#X connect 26 0 27 0;
#X connect 28 0 32 0;
#X connect 29 0 33 0;
#X connect 30 0 28 0;
#X connect 31 0 29 0;
#X connect 34 0 38 0;
#X connect 35 0 81 0;
#X connect 36 0 83 0;
#X connect 36 0 86 0;
#X connect 37 0 84 0;
#X connect 37 0 85 0;
#X connect 39 0 34 0;
#X connect 40 0 35 0;
#X connect 41 0 44 0;
#X connect 42 0 36 0;
#X connect 43 0 37 0;
#X connect 44 0 82 0;
#X connect 44 0 87 0;
#X connect 45 0 4 0;
#X connect 46 0 64 0;
#X connect 47 0 65 0;
#X connect 48 0 66 0;
#X connect 49 0 67 0;
#X connect 50 0 68 0;
#X connect 51 0 71 0;
#X connect 52 0 72 0;
#X connect 53 0 70 0;
#X connect 54 0 46 0;
#X connect 55 0 47 0;
#X connect 56 0 48 0;
#X connect 57 0 49 0;
#X connect 58 0 50 0;
#X connect 59 0 53 0;
#X connect 60 0 51 0;
#X connect 61 0 52 0;
#X connect 62 0 49 1;
#X connect 62 0 53 1;
#X connect 62 0 52 1;
#X connect 62 0 51 1;
#X connect 62 0 50 1;
#X connect 62 0 48 1;
#X connect 62 0 47 1;
#X connect 62 0 46 1;
#X connect 62 0 91 1;
#X connect 63 0 54 0;
#X connect 63 0 61 0;
#X connect 63 0 60 0;
#X connect 63 0 59 0;
#X connect 63 0 58 0;
#X connect 63 0 57 0;
#X connect 63 0 56 0;
#X connect 63 0 55 0;
#X connect 63 0 90 0;
#X connect 88 0 14 0;
#X connect 90 0 91 0;
#X connect 91 0 92 0;
#X connect 92 0 93 0;
#X connect 95 0 76 0;
#X connect 95 0 102 0;
#X connect 96 0 1 0;
#X connect 97 0 76 0;
#X connect 100 0 101 0;
#X connect 100 1 89 0;
#X connect 103 0 96 0;
#X coords 0 839 1 838 85 60 0;
#X restore 197 46 pd touchOSC;
#X obj 585 15 nui-btns;
#X obj 188 134 nui-knbs;
#X obj 44 175 r touchkey;
#X obj 44 199 unpack;
#N canvas 150 143 1016 822 NUIOSC 0;
#X obj 80 135 unpackOSC;
#X obj 82 192 route 0 1 2;
#X obj 57 324 tgl 15 0 empty empty empty 17 7 0 10 -262144 -1 -1 0
1;
#X obj 78 324 tgl 15 0 empty empty empty 17 7 0 10 -262144 -1 -1 0
1;
#X obj 99 324 tgl 15 0 empty empty empty 17 7 0 10 -262144 -1 -1 0
1;
#X obj 63 241 s but0;
#X obj 107 293 s but2;
#X obj 85 265 s but1;
#X obj 57 21 loadbang;
#X msg 245 98 connect 192.168.1.186 3001;
#X obj 329 276 packOSC;
#X obj 321 376 udpsend;
#X msg 349 315 disconnect;
#X text 604 339 fates NUI;
#X obj 316 140 bng 15 250 50 0 empty empty empty 17 7 0 10 -262144
-1 -1;
#X msg 590 196 /nui/gFillArea 5 20 20 10 10;
#X msg 485 249 /nui/displayClear;
#X msg 331 191 /nui/displayPaint;
#X obj 335 159 metro 100;
#X obj 639 284 print;
#X msg 636 253 /nui/waveform 1 \$1;
#X msg 553 148 /nui/gClear 0 1;
#X obj 845 668 print packet;
#X msg 807 252 /nui/waveform 1 \$1;
#X obj 604 605 list trim;
#X obj 500 654 print;
#X obj 203 60 t b b b;
#X obj 1198 587 oscparse;
#X obj 1215 632 print parse-output;
#X obj 143 383 route 0 1 2 3;
#X obj 143 444 t b f;
#X obj 143 467 f 0;
#X obj 143 490 +;
#X obj 143 524 nbx 5 14 -1e+37 1e+37 0 0 empty empty empty 0 -8 0 10
-262144 -1 -1 0 256;
#X obj 213 443 t b f;
#X obj 213 466 f 0;
#X obj 213 489 +;
#X obj 213 523 nbx 5 14 -1e+37 1e+37 0 0 empty empty empty 0 -8 0 10
-262144 -1 -1 0 256;
#X obj 281 442 t b f;
#X obj 281 465 f 0;
#X obj 281 488 +;
#X obj 281 522 nbx 5 14 -1e+37 1e+37 0 0 empty empty empty 0 -8 0 10
-262144 -1 -1 0 256;
#X obj 346 442 t b f;
#X obj 346 465 f 0;
#X obj 346 488 +;
#X obj 346 522 nbx 5 14 -1e+37 1e+37 0 0 empty empty empty 0 -8 0 10
-262144 -1 -1 0 256;
#X obj 155 579 s enc0;
#X obj 225 579 s enc1;
#X obj 293 579 s enc2;
#X obj 358 579 s enc3;
#X obj 143 551 / 100;
#X obj 209 548 / 100;
#X obj 273 549 / 100;
#X obj 344 548 / 100;
#X obj 80 162 routeOSC /nui/button /nui/encoder;
#X obj 595 568 list prepend;
#X obj 612 652 netsend -u -b;
#X msg 718 593 connect 192.168.1.186 3001;
#X obj 575 513 oscformat nui waveform 1 -f b;
#N canvas 4 53 577 561 gWaveform 0;
#X obj 44 38 inlet;
#X text 56 19 bang;
#X text 161 20 intensity;
#X text 286 16 wave;
#X obj 186 34 inlet;
#X obj 295 42 inlet;
#X obj 54 72 bng 15 250 50 0 empty empty empty 17 7 0 10 -262144 -1
-1;
#X obj 54 92 list;
#X msg 54 142 sendtyped /nui/gWaveform \$1;
#X obj 54 167 list append;
#X obj 54 192 list trim;
#X obj 54 217 outlet;
#X msg 54 117 \$1;
#X connect 0 0 6 0;
#X connect 4 0 7 1;
#X connect 5 0 9 1;
#X connect 6 0 7 0;
#X connect 7 0 12 0;
#X connect 8 0 9 0;
#X connect 9 0 10 0;
#X connect 10 0 11 0;
#X connect 12 0 8 0;
#X restore 467 473 pd gWaveform;
#X msg 566 375 1 2 3 4 5 6 7 8 9 10 11 12 13 14 15 16 17 18 19 20 21
22 23 24 25 26 27 28 29 30 31 32 33 34 35 36 37 38 39 40 41 42 43 44
45 46 47 48 49 50 51 52 53 54 55 56 57 58 59 60 61 62 63 64 1 2 3 4
5 6 7 8 9 10 11 12 13 14 15 16 17 18 19 20 21 22 23 24 25 26 27 28
29 30 31 32 33 34 35 36 37 38 39 40 41 42 43 44 45 46 47 48 49 50 51
52 53 54 55 56 57 58 59 60 61 62 63 64;
#X msg 489 443 16;
#X obj 488 338 bng 15 250 50 0 empty empty empty 17 7 0 10 -262144
-1 -1;
#X obj 484 364 t b b b;
#X obj 725 315 array get envelope;
#X obj 721 293 bng 15 250 50 0 empty empty empty 17 7 0 10 -262144
-1 -1;
#X msg 582 91 /nui/gSetPixel 16 50 50;
#X obj 348 681 s sidekickI;
#X obj 80 110 f;
#X connect 0 0 54 0;
#X connect 1 0 2 0;
#X connect 1 0 5 0;
#X connect 1 1 3 0;
#X connect 1 1 7 0;
#X connect 1 2 4 0;
#X connect 1 2 6 0;
#X connect 9 0 11 0;
#X connect 10 0 11 0;
#X connect 12 0 11 0;
#X connect 14 0 18 0;
#X connect 15 0 10 0;
#X connect 16 0 10 0;
#X connect 17 0 10 0;
#X connect 18 0 17 0;
#X connect 20 0 19 0;
#X connect 21 0 10 0;
#X connect 24 0 25 0;
#X connect 24 0 11 0;
#X connect 26 0 14 0;
#X connect 26 1 9 0;
#X connect 27 0 28 0;
#X connect 29 0 30 0;
#X connect 29 1 34 0;
#X connect 29 2 38 0;
#X connect 29 3 42 0;
#X connect 30 0 31 0;
#X connect 30 1 32 1;
#X connect 31 0 32 0;
#X connect 32 0 33 0;
#X connect 32 0 31 1;
#X connect 33 0 50 0;
#X connect 34 0 35 0;
#X connect 34 1 36 1;
#X connect 35 0 36 0;
#X connect 36 0 37 0;
#X connect 36 0 35 1;
#X connect 37 0 51 0;
#X connect 38 0 39 0;
#X connect 38 1 40 1;
#X connect 39 0 40 0;
#X connect 40 0 41 0;
#X connect 40 0 39 1;
#X connect 41 0 52 0;
#X connect 42 0 43 0;
#X connect 42 1 44 1;
#X connect 43 0 44 0;
#X connect 44 0 45 0;
#X connect 44 0 43 1;
#X connect 45 0 53 0;
#X connect 50 0 46 0;
#X connect 51 0 47 0;
#X connect 52 0 48 0;
#X connect 53 0 49 0;
#X connect 54 0 1 0;
#X connect 54 1 29 0;
#X connect 55 0 24 0;
#X connect 58 0 55 0;
#X connect 59 0 10 0;
#X connect 60 0 59 2;
#X connect 61 0 59 1;
#X connect 62 0 63 0;
#X connect 63 0 59 0;
#X connect 63 1 61 0;
#X connect 63 2 65 0;
#X connect 64 0 59 2;
#X connect 65 0 64 0;
#X connect 66 0 10 0;
#X connect 68 0 0 0;
#X restore 196 76 pd NUIOSC;
#N canvas 1105 309 697 494 initSettings 0;
#X obj 253 5 inlet;
#X obj 255 155 bng 15 250 50 0 empty empty empty 17 7 0 10 -262144
-1 -1;
#X obj 246 50 bng 15 250 50 0 empty empty empty 17 7 0 10 -262144 -1
-1;
#X obj 70 125 s rot1;
#X obj 118 125 s rot2;
#X obj 166 125 s rot3;
#X obj 216 125 s rot4;
#X obj 268 125 s rot5;
#X obj 315 125 s rot6;
#X obj 363 125 s rot7;
#X obj 412 125 s rot8;
#X obj 35 241 s rot9;
#X obj 84 241 s rot10;
#X obj 135 241 s rot11;
#X obj 194 241 s rot12;
#X obj 252 241 s rot13;
#X obj 312 241 s rot14;
#X obj 370 241 s rot15;
#X obj 436 241 s rot16;
#X msg 70 95 0.1;
#X msg 166 95 0.9;
#X msg 216 95 0.5;
#X msg 268 95 0.1;
#X msg 315 95 0.9;
#X msg 363 95 1;
#X msg 412 95 0.75;
#X msg 35 211 0.25;
#X msg 84 211 0;
#X msg 194 211 0;
#X msg 135 211 0;
#X msg 252 211 0;
#X msg 312 211 0.5;
#X msg 370 211 1;
#X msg 436 211 0.25;
#X obj 246 282 bng 15 250 50 0 empty empty empty 17 7 0 10 -262144
-1 -1;
#X obj 145 343 s modwheel;
#X msg 145 313 0.5;
#X msg 299 312 0.5;
#X obj 299 342 s pitchwheel;
#X msg 118 95 0.5;
#X connect 0 0 2 0;
#X connect 1 0 26 0;
#X connect 1 0 27 0;
#X connect 1 0 28 0;
#X connect 1 0 30 0;
#X connect 1 0 31 0;
#X connect 1 0 32 0;
#X connect 1 0 33 0;
#X connect 1 0 29 0;
#X connect 1 0 34 0;
#X connect 2 0 19 0;
#X connect 2 0 39 0;
#X connect 2 0 20 0;
#X connect 2 0 21 0;
#X connect 2 0 22 0;
#X connect 2 0 23 0;
#X connect 2 0 24 0;
#X connect 2 0 25 0;
#X connect 2 0 1 0;
#X connect 19 0 3 0;
#X connect 20 0 5 0;
#X connect 21 0 6 0;
#X connect 22 0 7 0;
#X connect 23 0 8 0;
#X connect 24 0 9 0;
#X connect 25 0 10 0;
#X connect 26 0 11 0;
#X connect 27 0 12 0;
#X connect 28 0 14 0;
#X connect 29 0 13 0;
#X connect 30 0 15 0;
#X connect 31 0 16 0;
#X connect 32 0 17 0;
#X connect 33 0 18 0;
#X connect 34 0 36 0;
#X connect 34 0 37 0;
#X connect 36 0 35 0;
#X connect 37 0 38 0;
#X connect 39 0 4 0;
#X restore 400 430 pd initSettings;
#X obj 590 66 tgl 15 0 empty empty empty 17 7 0 10 -262144 -1 -1 0
1;
#X msg 535 54 0;
#X obj 313 14 r~ inL;
#X obj 373 23 r~ inR;
#N canvas 244 238 1098 813 waveformplot 0;
#X obj 675 414 list prepend;
#X msg 631 146 128;
#X obj 631 168 until;
#X obj 636 213 f 0;
#X obj 792 426 t l;
#X obj 636 235 i;
#X obj 620 523 list append;
#X obj 620 545 list trim;
#X msg 680 172 0;
#X obj 608 104 t b b b b b b;
#X obj 210 294 tgl 15 0 empty empty empty 17 7 0 10 -262144 -1 -1 1
1;
#X obj 210 222 packOSC;
#X obj 210 258 udpsend;
#X obj 210 139 r oscOut;
#X obj 416 137 t b b;
#X obj 416 109 loadbang;
#X text 235 295 connected to mother background program;
#X obj 302 129 r oscOutGate;
#X obj 89 176 r oscOutRaw;
#X obj 210 175 spigot 1;
#X msg 281 220 connect localhost 3001;
#X msg 93 228 disconnect;
#X obj 117 498 s oscOutRaw;
#X msg 120 423 /nui/textLine 15 0 0 this is a test;
#X msg 352 430 /nui/displayPaint;
#X msg 39 370 /nui/displayClear;
#X msg 489 466 sendtyped /nui/gWaveform ib 15;
#X obj 607 34 bng 15 250 50 0 empty empty empty 17 7 0 10 -262144 -1
-1;
#N canvas 0 50 450 250 (subpatch) 0;
#X array scope-1 127 float 3;
#A 0 26.55 26.55 13.95 12.15 11.7 10.35 9.90001 9.90001 9.90001 9.90001
9.90001 9.90001 10.35 11.25 12.6 15.75 18.9 22.05 23.85 27 28.35 28.35
29.25 30.15 30.6 31.5 31.95 33.3 33.75 34.65 35.1 35.55 35.55 35.1
34.2 33.3 31.5 28.8 23.4 14.85 12.15 9.45002 9.45002 9.90002 10.8 13.95
20.25 26.55 31.5 32.85 35.1 35.55 36 36.45 36.45 36.45 36.45 36.45
36.45 36.45 35.55 35.1 34.2 32.85 29.25 25.2 15.75 14.85 14.4 13.5
13.05 13.05 12.6 12.15 35.1 35.1 35.55 36 36 36 36 35.1 32.85 30.15
29.25 27 25.65 24.75 22.95 22.5 21.6 20.7 19.8 19.35 19.35 25.2 26.55
27.45 27.45 27.9 26.1 24.75 23.4 22.95 22.05 22.05 21.6 21.15 21.15
20.7 22.05 25.65 27.45 27.9 28.35 28.35 28.35 28.35 28.35 28.35 28.35
28.35 28.35 28.35 28.35 28.35 28.35;
#X coords 0 0 127 63 200 140 1 0 0;
#X restore 729 25 graph;
#X obj 620 623 s oscOutRaw;
#X obj 823 644 print;
#X obj 690 214 + 1;
#X obj 636 280 int;
#X msg 858 374 /nui/displayClear;
#X msg 78 335 sendtyped /nui/gWaveform ib 15 0 15 15 15 45 45 45 23
34 34 34 34 34 22 22 34 34 34 34 34 34 34;
#X obj 636 257 tabread envelope;
#X msg 93 589 sendtyped /nui/gWaveform ib 15 1 2 3 4 5 6 7 8 9 10 11
12 13 14 15 16 17 18 19 20 21 22 23 24 25 26 27 28 29 30 31 32 33 34
35 36 37 38 39 40 41 42 43 44 45 46 47 48 49 50 51 52 53 54 55 56 57
58 59 60 61 62 63 64 1 2 3 4 5 6 7 8 9 10 11 12 13 14 15 16 17 18 19
20 21 22 23 24 25 26 27 28 29 30 31 32 33 34 35 36 37 38 39 40 41 42
43 44 45 46 47 48 49 50 51 52 53 54 55 56 57 58 59 60 61 62 63 64;
#X obj 592 4 inlet;
#X connect 0 0 4 0;
#X connect 0 0 6 1;
#X connect 1 0 2 0;
#X connect 2 0 3 0;
#X connect 3 0 5 0;
#X connect 3 0 31 0;
#X connect 4 0 0 1;
#X connect 5 0 35 0;
#X connect 6 0 7 0;
#X connect 7 0 30 0;
#X connect 7 0 29 0;
#X connect 8 0 3 1;
#X connect 9 0 26 0;
#X connect 9 1 1 0;
#X connect 9 2 8 0;
#X connect 9 3 0 0;
#X connect 9 4 0 1;
#X connect 9 5 33 0;
#X connect 11 0 12 0;
#X connect 12 0 10 0;
#X connect 13 0 19 0;
#X connect 14 0 20 0;
#X connect 15 0 14 0;
#X connect 17 0 19 1;
#X connect 18 0 11 0;
#X connect 19 0 11 0;
#X connect 20 0 12 0;
#X connect 21 0 12 0;
#X connect 23 0 22 0;
#X connect 24 0 22 0;
#X connect 25 0 22 0;
#X connect 26 0 6 0;
#X connect 27 0 9 0;
#X connect 31 0 3 1;
#X connect 32 0 0 0;
#X connect 33 0 29 0;
#X connect 34 0 22 0;
#X connect 35 0 32 0;
#X connect 36 0 22 0;
#X connect 37 0 27 0;
#X restore 624 631 pd waveformplot;
#X obj 637 588 bng 15 250 50 0 empty empty empty 17 7 0 10 -262144
-1 -1;
#X obj 1034 342 tabread envelope;
#X msg 1042 314 1;
#X floatatom 1034 367 5 0 0 0 - - -;
#X text 667 611 broken;
#N canvas 510 127 762 856 plotwaveform 0;
#X msg 188 147 128;
#X obj 188 169 until;
#X obj 193 214 f 0;
#X obj 193 236 i;
#X obj 268 525 list trim;
#X msg 237 173 0;
#X obj 165 105 t b b b b b b;
#X obj 164 35 bng 15 250 50 0 empty empty empty 17 7 0 10 -262144 -1
-1;
#X obj 247 215 + 1;
#X obj 193 307 int;
#X obj 191 278 tabread envelope;
#X obj 149 5 inlet;
#X obj 371 569 s oscOut;
#X msg 492 56 /oled/gLine 0 20 30 20 40 1;
#X msg 509 108 /oled/gLine 0 20 30 20 40 1;
#X obj 566 317 list append;
#X obj 577 347 list append;
#X obj 461 295 + 1;
#X obj 538 388 int;
#X obj 441 362 tabread envelope;
#X obj 592 383 list append;
#X obj 607 418 list append;
#X obj 603 449 list append;
#X msg 706 414 1;
#X obj 306 240 bng 15 250 50 0 empty empty empty 17 7 0 10 -262144
-1 -1;
#X obj 268 603 s oscOut;
#X msg 533 282 /oled/gLine 0;
#X obj 455 726 s SidekickI;
#X msg 455 695 /nui/gLine 10 10 6 40 40;
#X msg 409 504 /oled/gLine 3 10 6 40 40 1;
#X msg 383 528 /oled/gLine 0 10 6 40 40 1;
#X msg 199 437 /oled/gFillArea 0 0 12 128 41 0;
#X connect 0 0 1 0;
#X connect 1 0 2 0;
#X connect 2 0 3 0;
#X connect 2 0 8 0;
#X connect 2 0 24 0;
#X connect 3 0 10 0;
#X connect 3 0 15 1;
#X connect 3 0 17 0;
#X connect 4 0 25 0;
#X connect 5 0 2 1;
#X connect 6 1 0 0;
#X connect 6 2 5 0;
#X connect 6 4 31 0;
#X connect 6 5 23 0;
#X connect 7 0 6 0;
#X connect 8 0 2 1;
#X connect 9 0 16 1;
#X connect 10 0 9 0;
#X connect 11 0 7 0;
#X connect 15 0 16 0;
#X connect 16 0 20 0;
#X connect 17 0 19 0;
#X connect 17 0 20 1;
#X connect 18 0 21 1;
#X connect 19 0 18 0;
#X connect 20 0 21 0;
#X connect 21 0 22 0;
#X connect 22 0 4 0;
#X connect 23 0 22 1;
#X connect 24 0 26 0;
#X connect 26 0 15 0;
#X connect 28 0 27 0;
#X connect 29 0 12 0;
#X connect 30 0 12 0;
#X connect 31 0 25 0;
#X restore 464 633 pd plotwaveform;
#X obj 477 605 r replot;
#N canvas 59 199 873 764 effex 0;
#X floatatom 412 77 5 0 0 0 - - -;
#X floatatom 415 136 5 0 0 0 - - -;
#X obj 201 217 rev3~ 95 95 3000 20;
#X obj 409 109 expr 80+$f1*20;
#X obj 489 29 r modwheel;
#X obj 71 18 inlet~ Left;
#X obj 334 28 inlet~ Right;
#X obj 63 525 outlet~ Left;
#X obj 363 533 outlet~ Right;
#X obj 741 234 vsl 15 128 0 1 0 0 empty empty empty 0 -9 0 10 -262144
-1 -1 12111 1;
#X floatatom 746 185 5 0 0 0 - - -;
#X obj 746 160 r rot12;
#X obj 148 327 r modwheel;
#N canvas 1032 186 735 630 wetdry 0;
#X obj 75 36 inlet~ dry;
#X obj 182 36 inlet~ wet;
#X obj 447 38 inlet pan;
#X obj 57 129 expr~ $v1*sin((1-$f2)*1.57)*sin((1-$f2)*1.57);
#X obj 172 180 expr~ $v1*cos((1-$f2)*1.57)*cos((1-$f2)*1.57);
#X obj 201 242 outlet~ mixed;
#X connect 0 0 3 0;
#X connect 1 0 4 0;
#X connect 2 0 3 1;
#X connect 2 0 4 1;
#X connect 3 0 5 0;
#X connect 4 0 5 0;
#X restore 72 363 pd wetdry;
#X obj 501 330 r modwheel;
#N canvas 1032 186 735 630 wetdry 0;
#X obj 75 36 inlet~ dry;
#X obj 182 36 inlet~ wet;
#X obj 447 38 inlet pan;
#X obj 57 129 expr~ $v1*sin((1-$f2)*1.57)*sin((1-$f2)*1.57);
#X obj 172 180 expr~ $v1*cos((1-$f2)*1.57)*cos((1-$f2)*1.57);
#X obj 201 242 outlet~ mixed;
#X connect 0 0 3 0;
#X connect 1 0 4 0;
#X connect 2 0 3 1;
#X connect 2 0 4 1;
#X connect 3 0 5 0;
#X connect 4 0 5 0;
#X restore 425 366 pd wetdry;
#N canvas 876 215 1018 471 pingpong 0;
#X obj 38 49 inlet~ left;
#X obj 299 49 inlet~ right;
#X obj 50 369 outlet~ left;
#X obj 305 369 outlet~ right;
#X obj 614 4 inlet delayamt;
#N canvas 1032 186 735 630 wetdry 0;
#X obj 75 36 inlet~ dry;
#X obj 182 36 inlet~ wet;
#X obj 447 38 inlet pan;
#X obj 57 129 expr~ $v1*sin((1-$f2)*1.57)*sin((1-$f2)*1.57);
#X obj 172 180 expr~ $v1*cos((1-$f2)*1.57)*cos((1-$f2)*1.57);
#X obj 201 242 outlet~ mixed;
#X connect 0 0 3 0;
#X connect 1 0 4 0;
#X connect 2 0 3 1;
#X connect 2 0 4 1;
#X connect 3 0 5 0;
#X connect 4 0 5 0;
#X restore 50 323 pd wetdry;
#N canvas 1032 186 735 630 wetdry 0;
#X obj 75 36 inlet~ dry;
#X obj 182 36 inlet~ wet;
#X obj 447 38 inlet pan;
#X obj 57 129 expr~ $v1*sin((1-$f2)*1.57)*sin((1-$f2)*1.57);
#X obj 172 180 expr~ $v1*cos((1-$f2)*1.57)*cos((1-$f2)*1.57);
#X obj 201 242 outlet~ mixed;
#X connect 0 0 3 0;
#X connect 1 0 4 0;
#X connect 2 0 3 1;
#X connect 2 0 4 1;
#X connect 3 0 5 0;
#X connect 4 0 5 0;
#X restore 306 314 pd wetdry;
#X obj 73 156 +~;
#X obj 127 117 *~ 0;
#X obj 96 238 delwrite~ delayL 1000;
#X obj 289 157 +~;
#X obj 343 118 *~ 0;
#X obj 362 79 delread~ delayL 500;
#X obj 146 78 delread~ delayR 100;
#X obj 323 232 delwrite~ delayR 1000;
#X obj 306 258 delread~ delayR 57;
#X obj 54 268 delread~ delayL 153;
#X obj 137 189 +~;
#X obj 191 150 *~ 0;
#X obj 353 190 +~;
#X obj 407 151 *~ 0;
#X obj 210 111 delread~ delayR 333;
#X obj 426 112 delread~ delayL 232;
#X floatatom 528 221 5 0 0 0 - - -;
#X obj 528 196 * 0.4;
#X connect 0 0 7 0;
#X connect 1 0 10 0;
#X connect 4 0 6 2;
#X connect 4 0 5 2;
#X connect 4 0 24 0;
#X connect 5 0 2 0;
#X connect 6 0 3 0;
#X connect 7 0 17 0;
#X connect 8 0 7 1;
#X connect 10 0 19 0;
#X connect 11 0 10 1;
#X connect 12 0 11 0;
#X connect 13 0 8 0;
#X connect 15 0 6 1;
#X connect 16 0 5 1;
#X connect 17 0 9 0;
#X connect 18 0 17 1;
#X connect 19 0 14 0;
#X connect 20 0 19 1;
#X connect 21 0 18 0;
#X connect 22 0 20 0;
#X connect 24 0 18 1;
#X connect 24 0 20 1;
#X connect 24 0 8 1;
#X connect 24 0 11 1;
#X connect 24 0 23 0;
#X restore 218 458 pd pingpong;
#X connect 0 0 3 0;
#X connect 2 0 13 1;
#X connect 2 1 15 1;
#X connect 3 0 1 0;
#X connect 3 0 2 3;
#X connect 4 0 0 0;
#X connect 5 0 2 0;
#X connect 5 0 13 0;
#X connect 5 0 16 0;
#X connect 6 0 2 0;
#X connect 6 0 15 0;
#X connect 6 0 16 1;
#X connect 9 0 16 2;
#X connect 10 0 9 0;
#X connect 11 0 10 0;
#X connect 12 0 13 2;
#X connect 13 0 7 0;
#X connect 14 0 15 2;
#X connect 15 0 8 0;
#X connect 16 0 7 0;
#X connect 16 1 8 0;
#X restore 177 852 pd effex;
#X obj 86 899 throw~ outL;
#X obj 271 903 throw~ outR;
#X obj 455 385 delay 3000;
#X connect 0 0 1 0;
#X connect 0 0 5 0;
#X connect 0 1 1 1;
#X connect 1 0 28 0;
#X connect 1 1 28 1;
#X connect 2 0 8 0;
#X connect 3 0 1 8;
#X connect 4 0 1 8;
#X connect 7 0 8 0;
#X connect 8 1 31 0;
#X connect 8 4 6 0;
#X connect 10 0 17 0;
#X connect 10 1 16 0;
#X connect 11 0 1 4;
#X connect 11 1 1 6;
#X connect 11 2 1 2;
#X connect 11 3 1 5;
#X connect 12 0 13 0;
#X connect 13 0 1 0;
#X connect 13 1 1 1;
#X connect 16 0 3 2;
#X connect 17 0 16 0;
#X connect 18 0 3 0;
#X connect 19 0 3 0;
#X connect 21 0 20 0;
#X connect 22 0 24 0;
#X connect 23 0 22 0;
#X connect 27 0 26 0;
#X connect 28 0 29 0;
#X connect 28 1 30 0;
#X connect 31 0 15 0;
