#N canvas 513 250 311 382 10;
#X obj 25 116 vsl 15 60 0 1 0 0 ttk1 empty empty 0 -9 0 10 -262144
-1 -1 2768 1;
#X obj 48 116 vsl 15 60 0 1 0 0 ttk2 empty empty 0 -9 0 10 -262144
-1 -1 2768 1;
#X obj 70 116 vsl 15 60 0 1 0 0 ttk3 empty empty 0 -9 0 10 -262144
-1 -1 2768 1;
#X obj 93 116 vsl 15 60 0 1 0 0 ttk4 empty empty 0 -9 0 10 -262144
-1 -1 2768 1;
#X obj 23 220 outlet;
#X obj 47 263 outlet;
#X obj 71 304 outlet;
#X obj 96 325 outlet;
#X obj 18 61 s enc0;
#X obj 88 61 s enc1;
#X obj 156 61 s enc2;
#X obj 221 61 s enc3;
#X obj 48 244 * 127;
#X obj 74 283 * 127;
#X obj 115 295 * 127;
#X obj 24 200 * 127;
#X obj 19 6 r knob1;
#X floatatom 19 29 5 0 0 0 - - -;
#X floatatom 89 30 5 0 0 0 - - -;
#X floatatom 157 33 5 0 0 0 - - -;
#X floatatom 219 32 5 0 0 0 - - -;
#X obj 89 7 r knob2;
#X obj 158 10 r knob3;
#X obj 219 9 r knob4;
#X connect 0 0 15 0;
#X connect 1 0 12 0;
#X connect 2 0 13 0;
#X connect 3 0 14 0;
#X connect 12 0 5 0;
#X connect 13 0 6 0;
#X connect 14 0 7 0;
#X connect 15 0 4 0;
#X connect 16 0 17 0;
#X connect 17 0 8 0;
#X connect 17 0 0 0;
#X connect 18 0 9 0;
#X connect 18 0 1 0;
#X connect 19 0 10 0;
#X connect 19 0 2 0;
#X connect 20 0 11 0;
#X connect 20 0 3 0;
#X connect 21 0 18 0;
#X connect 22 0 19 0;
#X connect 23 0 20 0;
#X coords 0 -1 1 1 90 90 1 20 100;
