#N canvas 747 194 406 256 10;
#X obj 53 30 bng 15 250 50 0 empty empty empty 17 7 0 10 -99865 -99865
-1;
#X obj 76 30 bng 15 250 50 0 empty empty empty 17 7 0 10 -99865 -1
-1;
#X obj 13 13 bng 15 250 10 0 empty empty empty 17 7 0 10 -4034 -1 -1
;
#X obj 15 195 outlet;
#X obj 218 196 outlet;
#X obj 313 196 outlet;
#X obj 99 201 outlet record;
#N canvas 461 244 1202 523 longpress 1;
#X obj 105 67 tgl 15 0 empty empty empty 17 7 0 10 -262144 -1 -1 0
1;
#X obj 106 138 bng 25 250 50 0 empty empty empty 17 7 0 10 -262144
-1 -1;
#X obj 142 143 sel 1;
#X floatatom 142 198 5 0 0 0 - - -;
#X obj 105 87 t f f;
#X obj 105 35 inlet;
#X obj 109 407 outlet;
#X text 82 375 short;
#X obj 207 410 outlet;
#X obj 344 141 change;
#X floatatom 275 242 5 0 0 0 - - -;
#X obj 272 273 &;
#X floatatom 344 164 5 0 0 0 - - -;
#X obj 272 296 change;
#X obj 344 186 == 0;
#X text 189 381 long press (> 2 seconds);
#X floatatom 99 246 5 0 0 0 - - -;
#X obj 96 277 &;
#X obj 151 383 bng 15 250 50 0 empty empty empty 17 7 0 10 -262144
-1 -1;
#X obj 96 300 change;
#X obj 94 334 spigot;
#X obj 271 340 spigot;
#X obj 242 369 bng 15 250 50 0 empty empty empty 17 7 0 10 -262144
-1 -1;
#X floatatom 248 92 5 0 0 0 - - -;
#X obj 99 223 > 1;
#X obj 106 113 metro 1 100 persec;
#X obj 142 173 timer 100 persec;
#X obj 145 241 > 1;
#X obj 179 242 < 200;
#X obj 161 273 &&;
#X obj 276 219 > 400;
#X connect 0 0 4 0;
#X connect 0 0 23 0;
#X connect 1 0 26 1;
#X connect 2 0 26 0;
#X connect 3 0 24 0;
#X connect 3 0 27 0;
#X connect 3 0 28 0;
#X connect 3 0 30 0;
#X connect 4 0 25 0;
#X connect 4 1 2 0;
#X connect 5 0 0 0;
#X connect 9 0 12 0;
#X connect 10 0 11 1;
#X connect 11 0 13 0;
#X connect 12 0 14 0;
#X connect 13 0 21 0;
#X connect 14 0 11 0;
#X connect 14 0 17 0;
#X connect 16 0 17 1;
#X connect 17 0 19 0;
#X connect 18 0 6 0;
#X connect 19 0 20 0;
#X connect 20 0 18 0;
#X connect 21 0 22 0;
#X connect 22 0 8 0;
#X connect 23 0 9 0;
#X connect 24 0 16 0;
#X connect 25 0 1 0;
#X connect 26 0 3 0;
#X connect 27 0 29 0;
#X connect 28 0 29 1;
#X connect 29 0 20 1;
#X connect 30 0 10 0;
#X connect 30 0 21 1;
#X restore 27 117 pd longpress;
#X text 10 34 S LNG;
#X obj 25 155 bng 15 250 50 0 empty empty empty 17 7 0 10 -262144 -1
-1;
#X obj 94 163 bng 15 250 50 0 empty empty empty 17 7 0 10 -262144 -1
-1;
#X obj 216 158 sel 0;
#X obj 309 144 sel 0;
#X obj 40 74 r aux;
#X obj 216 91 r fs;
#X obj 302 90 r funcBut;
#X floatatom 216 114 5 0 0 0 - - -;
#X floatatom 302 113 5 0 0 0 - - -;
#X connect 0 0 4 0;
#X connect 1 0 5 0;
#X connect 2 0 7 0;
#X connect 7 0 9 0;
#X connect 7 1 10 0;
#X connect 9 0 3 0;
#X connect 10 0 6 0;
#X connect 11 0 4 0;
#X connect 12 0 5 0;
#X connect 13 0 7 0;
#X connect 14 0 16 0;
#X connect 15 0 17 0;
#X connect 16 0 11 0;
#X connect 17 0 12 0;
#X coords 0 -1 1 1 85 40 1 10 10;
