#N canvas 149 160 1139 796 10;
#X obj 492 150 i;
#X obj 492 172 change -1;
#X obj 493 223 s screenLine1;
#X msg 492 198 1: Amount \$1 %;
#X obj 494 118 * 100;
#X obj 108 479 rngs_reverb~, f 15;
#X msg 869 258 lp \$1;
#X msg 597 260 time \$1;
#X msg 725 256 diffusion \$1;
#X obj 635 148 i;
#X obj 635 170 change -1;
#X obj 637 116 * 100;
#X obj 744 145 i;
#X obj 744 167 change -1;
#X obj 746 113 * 100;
#X obj 902 145 i;
#X obj 901 170 change -1;
#X obj 903 116 * 100;
#X obj 638 90 r knob2;
#X obj 745 82 r knob3;
#X obj 902 85 r knob4;
#X obj 636 221 s screenLine2;
#X msg 635 196 2: Time \$1 %;
#X msg 744 193 3: Diffusion \$1 %;
#X obj 745 218 s screenLine3;
#X obj 902 221 s screenLine4;
#X msg 901 196 4: Cutoff \$1 %;
#X obj 500 40 inlet;
#X obj 641 38 inlet;
#X obj 734 40 inlet;
#X obj 897 40 inlet;
#X obj 80 628 outlet~ outLeft;
#X obj 180 627 outlet~ outRight;
#X obj 84 429 inlet~ Lin;
#X obj 154 428 inlet~ Rin;
#X connect 0 0 1 0;
#X connect 1 0 3 0;
#X connect 3 0 2 0;
#X connect 4 0 0 0;
#X connect 5 0 31 0;
#X connect 5 1 32 0;
#X connect 6 0 5 0;
#X connect 7 0 5 0;
#X connect 8 0 5 0;
#X connect 9 0 10 0;
#X connect 10 0 22 0;
#X connect 11 0 9 0;
#X connect 12 0 13 0;
#X connect 13 0 23 0;
#X connect 14 0 12 0;
#X connect 15 0 16 0;
#X connect 16 0 26 0;
#X connect 17 0 15 0;
#X connect 18 0 11 0;
#X connect 19 0 14 0;
#X connect 20 0 17 0;
#X connect 22 0 21 0;
#X connect 23 0 24 0;
#X connect 26 0 25 0;
#X connect 27 0 4 0;
#X connect 27 0 5 2;
#X connect 28 0 7 0;
#X connect 29 0 8 0;
#X connect 30 0 6 0;
#X connect 33 0 5 0;
#X connect 33 0 31 0;
#X connect 34 0 5 1;
#X connect 34 0 32 0;
